<?xml version="1.0" encoding="utf-8"?><svg viewBox="0 0 100 100" xmlns="http://www.w3.org/2000/svg" width="200px" height="200px" xmlns:xlink="http://www.w3.org/1999/xlink" style="width:100%;height:100%;background-size:initial;background-repeat-y:initial;background-repeat-x:initial;background-position-y:initial;background-position-x:initial;background-origin:initial;background-image:initial;background-color:rgb(241, 242, 243);background-clip:initial;background-attachment:initial;animation-play-state:paused" ><g class="ldl-scale" style="transform-origin:50% 50%;transform:rotate(0deg) scale(0.8, 0.8);animation-play-state:paused" ><g style="animation-play-state:paused" ><path stroke-miterlimit="10" stroke-linejoin="round" stroke-linecap="round" stroke-width="3" stroke="#000" fill="none" d="M44.751 71.627L45 68.014a2.56 2.56 0 0 0-.706-1.674l-6.626-6.948a2.56 2.56 0 0 0-1.854-.794h-3.948a1.807 1.807 0 0 1-1.807-1.807v-2.843a6.71 6.71 0 0 0 3.848-6.065v-6.854a6.656 6.656 0 0 0-6.655-6.655h-4.506a6.656 6.656 0 0 0-6.655 6.655v6.854a6.71 6.71 0 0 0 3.848 6.065v2.843c0 .998-.809 1.807-1.807 1.807h-3.948c-.7 0-1.37.287-1.854.794L5.706 66.34A2.56 2.56 0 0 0 5 68.014l.249 3.613" style="stroke:rgb(104, 156, 197);animation-play-state:paused" ></path>
<path stroke-miterlimit="10" stroke-linejoin="round" stroke-linecap="round" stroke-width="3" stroke="#000" fill="none" d="M55.249 71.627L55 68.014a2.56 2.56 0 0 1 .706-1.674l6.626-6.948a2.56 2.56 0 0 1 1.854-.794h3.948c.998 0 1.807-.809 1.807-1.807v-2.843a6.71 6.71 0 0 1-3.848-6.065v-6.854a6.656 6.656 0 0 1 6.655-6.655h4.506a6.656 6.656 0 0 1 6.655 6.655v6.854a6.71 6.71 0 0 1-3.848 6.065v2.843c0 .998.809 1.807 1.807 1.807h3.948c.7 0 1.37.287 1.854.794l6.625 6.948c.432.453.683 1.049.706 1.674l-.249 3.613" style="stroke:rgb(104, 156, 197);animation-play-state:paused" ></path></g>
<g style="animation-play-state:paused" ><g style="animation-play-state:paused" ><g style="animation-play-state:paused" ><path stroke-linejoin="round" stroke-linecap="round" stroke-width="3" stroke="#f47e5f" fill="none" d="M76.37 74.001C70.468 82.178 60.855 87.5 50 87.5a32.384 32.384 0 0 1-22.198-8.762" style="stroke:rgb(147, 219, 233);animation-play-state:paused" ></path>
<g style="animation-play-state:paused" ><path d="M23.117 84.297l10.809-9.783-10.295-.512z" fill="#f47e5f" style="fill:rgb(147, 219, 233);animation-play-state:paused" ></path></g></g></g>
<g style="animation-play-state:paused" ><g style="animation-play-state:paused" ><path stroke-linejoin="round" stroke-linecap="round" stroke-width="3" stroke="#f47e5f" fill="none" d="M23.633 25.995C29.536 17.82 39.147 12.5 50 12.5a32.384 32.384 0 0 1 22.198 8.762" style="stroke:rgb(147, 219, 233);animation-play-state:paused" ></path>
<g style="animation-play-state:paused" ><path d="M76.883 15.703l-10.809 9.783 10.295.512z" fill="#f47e5f" style="fill:rgb(147, 219, 233);animation-play-state:paused" ></path></g></g></g></g>
<metadata xmlns:d="https://loading.io/stock/" style="animation-play-state:paused" ><d:name style="animation-play-state:paused" >exchange</d:name>


<d:tags style="animation-play-state:paused" >exchange,benefit,refresh,give and take,share,community,switch account,recycle</d:tags>


<d:license style="animation-play-state:paused" >by</d:license>


<d:slug style="animation-play-state:paused" >ksapi5</d:slug></metadata></g><!-- generated by https://loading.io/ --></svg>