<?xml version="1.0" encoding="utf-8"?><svg viewBox="0 0 100 100" xmlns="http://www.w3.org/2000/svg" width="200px" height="200px" xmlns:xlink="http://www.w3.org/1999/xlink" style="width:100%;height:100%;background-size:initial;background-repeat-y:initial;background-repeat-x:initial;background-position-y:initial;background-position-x:initial;background-origin:initial;background-image:initial;background-color:rgb(241, 242, 243);background-clip:initial;background-attachment:initial;animation-play-state:paused" ><g class="ldl-scale" style="transform-origin:50% 50%;transform:rotate(0deg) scale(0.8, 0.8);animation-play-state:paused" ><path stroke-miterlimit="10" stroke-width="3" stroke="#323232" fill="none" d="M53.373 15.665c-5.135 0-10.021.991-14.457 2.773-3.937-4.62-10.411-6.666-16.537-4.661h0c3.603 2.896 6.159 6.134 7.684 9.71-5.705 4.402-9.949 10.39-11.981 17.238h-1.236a6.848 6.848 0 0 0-6.848 6.848v6.545a6.848 6.848 0 0 0 6.848 6.848h1.875a33.597 33.597 0 0 0 6.303 10.572c2.671 3.046 4.251 6.893 4.251 10.944v.851a3.658 3.658 0 0 0 3.658 3.658h9.07a3.658 3.658 0 0 0 3.658-3.658 39.24 39.24 0 0 0 7.711.766c3.688 0 7.246-.515 10.602-1.462v.695a3.658 3.658 0 0 0 3.658 3.658h9.07a3.658 3.658 0 0 0 3.658-3.658v-2.306c0-4.549 1.339-9.007 3.906-12.762C87.896 62.955 90 56.649 90 49.882c0-18.897-16.398-34.217-36.627-34.217z" style="stroke:rgb(104, 156, 197);animation-play-state:paused" ></path>
<g style="animation-play-state:paused" ><path stroke-miterlimit="10" stroke-linejoin="round" stroke-linecap="round" stroke-width="3" stroke="#f5e169" fill="none" d="M64 36.333H45.667a7.333 7.333 0 0 0-7.333 7.333v0a7.333 7.333 0 0 0 7.333 7.333h14.667a7.333 7.333 0 0 1 7.333 7.333v0a7.333 7.333 0 0 1-7.333 7.333h-22" style="stroke:rgb(147, 219, 233);animation-play-state:paused" ></path>
<g style="animation-play-state:paused" ><path d="M49.066 31v40" stroke-miterlimit="10" stroke-linejoin="round" stroke-linecap="round" stroke-width="3" stroke="#f5e169" fill="none" style="stroke:rgb(147, 219, 233);animation-play-state:paused" ></path>
<path d="M55.623 31v40" stroke-miterlimit="10" stroke-linejoin="round" stroke-linecap="round" stroke-width="3" stroke="#f5e169" fill="none" style="stroke:rgb(147, 219, 233);animation-play-state:paused" ></path></g></g>
<metadata xmlns:d="https://loading.io/stock/" style="animation-play-state:paused" ><d:name style="animation-play-state:paused" >saving</d:name>


<d:tags style="animation-play-state:paused" >saving,piggy bank,deposit,withdraw,moneybox</d:tags>


<d:license style="animation-play-state:paused" >by</d:license>


<d:slug style="animation-play-state:paused" >xz1bjr</d:slug></metadata></g><!-- generated by https://loading.io/ --></svg>