<?xml version="1.0" encoding="utf-8"?><svg viewBox="0 0 100 100" xmlns="http://www.w3.org/2000/svg" width="200px" height="200px" xmlns:xlink="http://www.w3.org/1999/xlink" style="width:100%;height:100%;background-size:initial;background-repeat-y:initial;background-repeat-x:initial;background-position-y:initial;background-position-x:initial;background-origin:initial;background-image:initial;background-color:rgb(241, 242, 243);background-clip:initial;background-attachment:initial;animation-play-state:paused" ><g class="ldl-scale" style="transform-origin:50% 50%;transform:rotate(0deg) scale(0.8, 0.8);animation-play-state:paused" ><g style="animation-play-state:paused" ><path d="M15.194 66.89V24.667h69.612V66.89" stroke-miterlimit="10" stroke-linejoin="round" stroke-linecap="round" stroke-width="3" stroke="#323232" fill="none" style="stroke:rgb(104, 156, 197);animation-play-state:paused" ></path>
<path stroke-miterlimit="10" stroke-linejoin="round" stroke-linecap="round" stroke-width="3" stroke="#323232" fill="none" d="M58.627 66.89c-.645 1.248-1.933 2.11-3.435 2.11H44.808c-1.502 0-2.79-.862-3.435-2.11H8.333a8.333 8.333 0 0 0 8.333 8.333h66.667a8.333 8.333 0 0 0 8.333-8.333H58.627z" style="stroke:rgb(104, 156, 197);animation-play-state:paused" ></path></g>
<path stroke-miterlimit="10" stroke-linejoin="round" stroke-linecap="round" stroke-width="3" stroke="#76a4bd" fill="none" d="M67.282 62.298l.218-3.161a2.242 2.242 0 0 0-.618-1.465l-5.797-6.08a2.24 2.24 0 0 0-1.622-.695h-3.454a1.581 1.581 0 0 1-1.581-1.581v-2.488a5.872 5.872 0 0 0 3.367-5.307v-5.997a5.823 5.823 0 0 0-5.823-5.823h-3.943a5.823 5.823 0 0 0-5.823 5.823v5.997a5.872 5.872 0 0 0 3.367 5.307v2.488c0 .873-.708 1.581-1.581 1.581h-3.454a2.24 2.24 0 0 0-1.622.695l-5.797 6.08a2.242 2.242 0 0 0-.618 1.465l.218 3.161" style="stroke:rgb(147, 219, 233);animation-play-state:paused" ></path>
<metadata xmlns:d="https://loading.io/stock/" style="animation-play-state:paused" ><d:name style="animation-play-state:paused" >user</d:name>


<d:tags style="animation-play-state:paused" >user,avatar,man,person,member,crew,staff,owner,account</d:tags>


<d:license style="animation-play-state:paused" >by</d:license>


<d:slug style="animation-play-state:paused" >u7x83a</d:slug></metadata></g><!-- generated by https://loading.io/ --></svg>